HIERARCHY
ROOT Hips
{
	OFFSET 0.00000 0.00000 0.00000
	CHANNELS 6 Xposition Yposition Zposition Zrotation Yrotation Xrotation 
	JOINT LHipJoint
	{
		OFFSET 0 0 0
		CHANNELS 3 Zrotation Yrotation Xrotation
		JOINT LeftHip
		{
			OFFSET 1.62964 -1.40469 0.78906
			CHANNELS 3 Zrotation Yrotation Xrotation
			JOINT LeftKnee
			{
				OFFSET 2.29640 -6.30932 0.00000
				CHANNELS 3 Zrotation Yrotation Xrotation
				JOINT LeftAnkle
				{
					OFFSET 2.29451 -6.30412 0.00000
					CHANNELS 3 Zrotation Yrotation Xrotation
					JOINT LeftToe
					{
						OFFSET 0.03611 -0.09921 1.56387
						CHANNELS 3 Zrotation Yrotation Xrotation
						End Site
						{
							OFFSET 0.00000 -0.00000 0.80291
						}
					}
				}
			}
		}
	}
	JOINT RHipJoint
	{
		OFFSET 0 0 0
		CHANNELS 3 Zrotation Yrotation Xrotation
		JOINT RightHip
		{
			OFFSET -1.73712 -1.40469 0.78906
			CHANNELS 3 Zrotation Yrotation Xrotation
			JOINT RightKnee
			{
				OFFSET -2.28137 -6.26801 0.00000
				CHANNELS 3 Zrotation Yrotation Xrotation
				JOINT RightAnkle
				{
					OFFSET -2.28681 -6.28298 0.00000
					CHANNELS 3 Zrotation Yrotation Xrotation
					JOINT RightToe
					{
						OFFSET -0.15927 -0.43759 1.61103
						CHANNELS 3 Zrotation Yrotation Xrotation
						End Site
						{
							OFFSET -0.00000 -0.00000 0.84630
						}
					}
				}
			}
		}
	}
	JOINT lowerback
	{
		OFFSET 0 0 0
		CHANNELS 3 Zrotation Yrotation Xrotation
		JOINT Chest
		{
			OFFSET -0.04227 2.04338 -0.00225
			CHANNELS 3 Zrotation Yrotation Xrotation
			JOINT Chest2
			{
				OFFSET -0.02148 2.04482 -0.04273
				CHANNELS 3 Zrotation Yrotation Xrotation
				JOINT lowerneck
				{
					OFFSET 0 0 0
					CHANNELS 3 Zrotation Yrotation Xrotation
					JOINT Neck
					{
						OFFSET 0.09180 1.44629 0.19359
						CHANNELS 3 Zrotation Yrotation Xrotation
						JOINT Head
						{
							OFFSET 0.00887 1.40645 0.14750
							CHANNELS 3 Zrotation Yrotation Xrotation
							End Site
							{
								OFFSET -0.00669 1.50671 0.03707
							}
						}
					}
				}
				JOINT LeftCollar
				{
					OFFSET 0 0 0
					CHANNELS 3 Zrotation Yrotation Xrotation
					JOINT LeftShoulder
					{
						OFFSET 2.17674 1.86763 -0.06520
CHANNELS 3 Zrotation Xrotation Yrotation
						JOINT LeftElbow
						{
OFFSET 0 -4.657760 0.000000
CHANNELS 3 Zrotation Xrotation Yrotation
							JOINT LeftWrist
							{
OFFSET 0 -3.555390 0.000000
CHANNELS 3 Zrotation Xrotation Yrotation
								JOINT lhand
								{
									OFFSET 0 0 0
CHANNELS 3 Zrotation Xrotation Yrotation
									JOINT LFingers
									{
OFFSET 0 -0.707260 0.000000
CHANNELS 3 Zrotation Xrotation Yrotation
										End Site
										{
OFFSET 0 -0.570220 0.000000
										}
									}
								}
								JOINT LThumb
								{
OFFSET 0 0.000000 0.000000
CHANNELS 3 Zrotation Xrotation Yrotation
									End Site
									{
OFFSET 0 -0.578920 0.578920
									}
								}
							}
						}
					}
				}
				JOINT RightCollar
				{
					OFFSET 0 0 0
					CHANNELS 3 Zrotation Yrotation Xrotation
					JOINT RightShoulder
					{
						OFFSET -2.80694 1.55459 -0.32496
CHANNELS 3 Zrotation Xrotation Yrotation
						JOINT RightElbow
						{
OFFSET 0 -4.719250 -0.000000
CHANNELS 3 Zrotation Xrotation Yrotation
							JOINT RightWrist
							{
OFFSET 0 -3.569900 0.000000
CHANNELS 3 Zrotation Xrotation Yrotation
								JOINT rhand
								{
									OFFSET 0 0 0
CHANNELS 3 Zrotation Xrotation Yrotation
									JOINT RFingers
									{
OFFSET 0 -0.507760 0.000000
CHANNELS 3 Zrotation Xrotation Yrotation
										End Site
										{
OFFSET 0 -0.409370 0.000000
										}
									}
								}
								JOINT RThumb
								{
OFFSET 0 0.000000 0.000000
CHANNELS 3 Zrotation Xrotation Yrotation
									End Site
									{
OFFSET 0 -0.415620 0.415620
									}
								}
							}
						}
					}
				}
			}
		}
	}
}
MOTION
Frames: 4
Frame Time: 0.008333333333333333
8.934200 16.265200 31.345100 178.526000 -1.692600 -160.475000 0.000000 0.000000 0.000000 -21.132700 -14.895700 -14.810000 0.251100 3.224000 8.903000 0.207200 -2.594500 -8.093000 2.651000 -10.107300 -29.325000 0.000000 0.000000 0.000000 18.883800 13.384800 -14.057600 -0.244900 -3.184300 8.792300 -2.211700 1.001300 -27.873100 -0.361500 3.862300 -10.689700 -6.848200 -1.932600 -27.176800 -0.734300 -0.717700 -0.157600 2.635100 -0.952100 14.389900 -3.866600 -0.549100 -0.445800 5.762600 -1.499700 9.443300 2.534800 -0.855600 3.221500 0.000000 0.000000 0.000000 4.414300 -4.803300 -30.899000 20.775600 -31.565500 5.932000 20.820300 -3.432200 9.839200 0.000000 0.000000 0.000000 -7.125000 0.000000 0.000000 -4.389700 19.484200 -2.682000 0.000000 0.000000 0.000000 0.575500 -3.048400 20.086100 -21.685400 -32.619700 -6.415400 -13.543700 9.258900 56.615400 0.000000 0.000000 0.000000 7.125000 0.000000 -0.000000 81.423300 76.897400 -67.899700
8.933140 16.265200 31.352342 178.586937 -1.699753 -160.395518 0.000000 0.000000 0.000000 -21.007471 -15.132999 -14.894870 0.253749 3.241045 8.950601 0.221683 -2.358349 -8.389470 2.850059 -10.447220 -30.438284 0.000000 0.000000 0.000000 18.910471 13.580415 -14.194840 -0.251524 -3.227044 8.911524 -2.226890 0.921199 -27.993648 -0.359734 3.853115 -10.663824 -6.762889 -1.936574 -27.162317 -0.694117 -0.769717 -0.245207 2.612933 -0.969851 14.286661 -3.906165 -0.525167 -0.395638 5.716147 -1.467819 9.476153 2.527293 -0.844561 3.221235 0.000000 0.000000 0.000000 4.367759 -4.636298 -31.058053 21.114372 -31.961323 6.110482 20.921508 -3.609093 10.264166 0.000000 0.000000 0.000000 -7.125000 0.000000 0.000000 -4.326202 19.025321 -2.687122 0.000000 0.000000 0.000000 0.525603 -2.942335 21.364885 -22.125733 -33.118408 -6.654642 -20.893003 13.290516 58.307758 0.000000 0.000000 0.000000 7.125000 0.000000 0.000000 92.937749 79.239572 -82.066567
8.934456 16.263361 31.356365 178.618755 -1.673574 -160.335192 0.000000 0.000000 0.000000 -20.937337 -15.133366 -15.013915 0.256016 3.255637 8.991229 0.224826 -2.286947 -8.455750 2.933334 -10.586146 -30.896785 0.000000 0.000000 0.000000 18.925034 13.647985 -14.307329 -0.254392 -3.245114 8.961859 -2.223153 0.923473 -27.968987 -0.351148 3.807226 -10.534960 -6.741792 -1.916640 -27.194499 -0.684892 -0.756830 -0.288294 2.615441 -0.963541 14.250778 -3.862205 -0.536406 -0.409306 5.659962 -1.481761 9.508852 2.499940 -0.851836 3.234150 0.000000 0.000000 0.000000 4.386964 -4.546538 -31.306225 21.427550 -32.323582 6.277164 20.957199 -3.579090 10.073812 0.000000 0.000000 0.000000 -7.125000 0.000000 0.000000 -4.296804 19.224828 -2.649793 0.000000 0.000000 0.000000 0.494939 -2.929066 21.647816 -22.306758 -33.321947 -6.753656 -20.381604 12.340794 57.598987 0.000000 0.000000 0.000000 7.125000 0.000000 0.000000 88.460147 79.249962 -77.509453
8.936718 16.260267 31.359833 178.636391 -1.627634 -160.245317 0.000000 0.000000 0.000000 -20.882555 -15.144811 -15.185450 0.261536 3.290312 9.088007 0.227213 -2.265154 -8.503549 2.994860 -10.686560 -31.230230 0.000000 0.000000 0.000000 18.919178 13.641607 -14.469230 -0.256364 -3.257732 8.997013 -2.168148 0.868043 -27.628645 -0.408931 4.098760 -11.355487 -6.734449 -1.887151 -27.295169 -0.694480 -0.717420 -0.307511 2.613528 -0.947587 14.272315 -3.811092 -0.557880 -0.446152 5.612879 -1.508081 9.533606 2.474041 -0.863787 3.249400 0.000000 0.000000 0.000000 4.423794 -4.529926 -31.504929 21.682404 -32.615912 6.413926 20.810543 -3.594491 10.221609 0.000000 0.000000 0.000000 -7.125000 0.000000 0.000000 -4.403853 19.079113 -2.730807 0.000000 0.000000 0.000000 0.497406 -2.960342 21.729193 -22.440638 -33.471378 -6.827322 -18.833371 10.761209 56.560074 0.000000 0.000000 0.000000 7.125000 0.000000 0.000000 82.304786 78.811033 -70.874894
